<?xml version="1.0" encoding="UTF-8" standalone="no"?>
<svg
   width="100%"
   height="100%"
   viewBox="0 0 100 100"
   version="1.1"
   id="svg6"
   sodipodi:docname="weeble.svg"
   inkscape:version="1.4 (86a8ad7, 2024-10-11)"
   xmlns:inkscape="http://www.inkscape.org/namespaces/inkscape"
   xmlns:sodipodi="http://sodipodi.sourceforge.net/DTD/sodipodi-0.dtd"
   xmlns:xlink="http://www.w3.org/1999/xlink"
   xmlns="http://www.w3.org/2000/svg"
   xmlns:svg="http://www.w3.org/2000/svg">
  <defs
     id="defs6" />
  <sodipodi:namedview
     id="namedview6"
     pagecolor="#ffffff"
     bordercolor="#000000"
     borderopacity="0.25"
     inkscape:showpageshadow="2"
     inkscape:pageopacity="0.0"
     inkscape:pagecheckerboard="0"
     inkscape:deskcolor="#d1d1d1"
     inkscape:zoom="11.67"
     inkscape:cx="50.042845"
     inkscape:cy="50"
     inkscape:window-width="3440"
     inkscape:window-height="1369"
     inkscape:window-x="-8"
     inkscape:window-y="-8"
     inkscape:window-maximized="1"
     inkscape:current-layer="g6" />
  <g
     data-shape-name="Square with a highlight"
     fill="#FFCC33"
     id="g2">
    <rect
       x="10"
       y="10"
       width="80"
       height="80"
       stroke="black"
       stroke-width="2"
       id="rect1" />
    <rect
       x="15"
       y="15"
       width="15"
       height="15"
       fill="white"
       opacity="0.7"
       id="rect2" />
  </g>
  <svg
     data-shape-name="Round Rainbow"
     version="1.1"
     id="svg3">
    <defs
       id="defs2">
      <linearGradient
         xlink:href="#linearGradient4"
         id="linearGradient45"
         x1="14.180246"
         y1="38.07793"
         x2="46.007256"
         y2="56.453259"
         gradientUnits="userSpaceOnUse"
         gradientTransform="translate(2.156581,0.66307202)" />
      <linearGradient
         id="linearGradient4">
        <stop
           style="stop-color:#ee642a;stop-opacity:1;"
           offset="0.10252365"
           id="stop6" />
        <stop
           style="stop-color:#e7bb1d;stop-opacity:1;"
           offset="0.27365929"
           id="stop7" />
        <stop
           style="stop-color:#a0df19;stop-opacity:1;"
           offset="0.43020505"
           id="stop8" />
        <stop
           style="stop-color:#47c7f2;stop-opacity:1;"
           offset="0.56210566"
           id="stop9" />
        <stop
           style="stop-color:#4957f8;stop-opacity:1;"
           offset="0.71007496"
           id="stop10" />
        <stop
           style="stop-color:#ff57e0;stop-opacity:1;"
           offset="0.86750787"
           id="stop5" />
      </linearGradient>
      <linearGradient
         xlink:href="#linearGradient4"
         id="linearGradient45-7"
         x1="14.180246"
         y1="38.07793"
         x2="46.007256"
         y2="56.453259"
         gradientUnits="userSpaceOnUse"
         gradientTransform="translate(38.219081,1.475572)" />
    </defs>
    <!-- Bridge -->
    <rect
       x="10"
       y="35"
       width="80"
       height="3"
       fill="#000000"
       id="rect3" />
    <path
       id="path44"
       style="fill:url(#linearGradient45);fill-opacity:1;stroke:#000000;stroke-width:1.62341;stroke-dasharray:none"
       d="m 24.397522,31.249205 c -3.469492,-6e-6 -6.675437,1.894678 -8.410184,4.970342 -2.196813,3.896413 -1.563389,8.817376 1.544421,11.998331 L 32.15418,64.220777 46.968903,48.217878 c 3.107809,-3.180955 3.741234,-8.101918 1.544421,-11.998331 -2.197395,-3.895913 -6.676912,-5.795654 -10.92212,-4.632013 -2.14678,0.593796 -4.029441,1.923798 -5.333361,3.76774 -1.306955,-1.846244 -3.194198,-3.176487 -5.345378,-3.76774 -0.820258,-0.224845 -1.665785,-0.33859 -2.514943,-0.338329 z" />
    <path
       id="path44-5"
       style="fill:url(#linearGradient45-7);fill-opacity:1;stroke:#000000;stroke-width:1.62341;stroke-dasharray:none"
       d="m 60.460022,32.061705 c -3.469492,-6e-6 -6.675437,1.894678 -8.410184,4.970342 -2.196813,3.896413 -1.563389,8.817376 1.544421,11.998331 L 68.21668,65.033277 83.031403,49.030378 c 3.107809,-3.180955 3.741234,-8.101918 1.544421,-11.998331 -2.197395,-3.895913 -6.676912,-5.795654 -10.92212,-4.632013 -2.14678,0.593796 -4.029441,1.923798 -5.333361,3.76774 -1.306955,-1.846244 -3.194198,-3.176487 -5.345378,-3.76774 -0.820258,-0.224845 -1.665785,-0.33859 -2.514943,-0.338329 z" />
    <!-- Left Lens -->
    <path
       d="m 16.8125,39 q 4,-9.0625 12,-4.53125 -8,4.53125 -12,4.53125"
       fill="#ffffff"
       opacity="0.5"
       id="path2"
       style="stroke-width:0.851469" />
    <!-- Right Lens -->
    <path
       d="m 52.4375,39.9375 q 4.145834,-10 12.4375,-5 -8.291666,5 -12.4375,5"
       fill="#ffffff"
       opacity="0.5"
       id="path3"
       style="stroke-width:0.910586" />
  </svg>
  <g
     data-shape-name="Blep"
     id="g6">
    <path
       d="m 30,70 q 20,10 40,0"
       stroke="#000000"
       stroke-width="2"
       fill="transparent"
       id="path4"
       style="fill:none" />
    <path
       stroke="#000000"
       stroke-width="2"
       fill="pink"
       d="m 57.865676,74.342903 a 7.2104292,12.724286 0 0 1 -7.209402,12.724286 7.2104292,12.724286 0 0 1 -7.211456,-12.72066 l 7.210429,-0.0036 z"
       id="path5" />
    <path
       stroke="#000000"
       stroke-width="2"
       fill="transparent"
       d="m 50.412411,74.649148 -0.242367,7.998123 v 0 0 z"
       id="path6" />
  </g>
</svg>
